<svg width="48" height="48" viewBox="0 0 48 48" fill="none" xmlns="http://www.w3.org/2000/svg">
<path d="M18.2382 0.700643L18.7769 2.88261C16.6538 3.40733 14.6218 4.24863 12.7492 5.37824L11.5968 3.44856C13.6581 2.2003 15.8976 1.27368 18.2382 0.700643ZM29.7617 0.700643L29.2231 2.88261C31.3461 3.40733 33.3781 4.24863 35.2508 5.37824L36.4168 3.44856C34.3501 2.2014 32.1062 1.27489 29.7617 0.700643ZM3.44853 11.59C2.20144 13.6543 1.27491 15.8959 0.700614 18.2382L2.88258 18.7769C3.4073 16.6538 4.2486 14.6218 5.37821 12.7492L3.44853 11.59ZM2.24845 24C2.24828 22.9089 2.33034 21.8194 2.49392 20.7407L0.271038 20.3997C-0.090346 22.784 -0.090346 25.2092 0.271038 27.5934L2.49392 27.2593C2.3306 26.1806 2.24854 25.0911 2.24845 24ZM36.4031 44.5446L35.2508 42.6218C33.3811 43.7524 31.3512 44.5938 29.2299 45.1174L29.7686 47.2994C32.1063 46.7208 34.3431 45.7921 36.4031 44.5446ZM45.7515 24C45.7514 25.0911 45.6694 26.1806 45.506 27.2593L47.7289 27.5934C48.0903 25.2092 48.0903 22.784 47.7289 20.3997L45.506 20.7407C45.6696 21.8194 45.7517 22.9089 45.7515 24ZM47.2993 29.755L45.1174 29.2163C44.5939 31.3419 43.7525 33.3763 42.6217 35.2508L44.5514 36.41C45.7997 34.3439 46.7263 32.0999 47.2993 29.755ZM27.2593 45.5061C25.0987 45.8334 22.9012 45.8334 20.7407 45.5061L20.4065 47.7289C22.7885 48.0904 25.2114 48.0904 27.5934 47.7289L27.2593 45.5061ZM41.5103 36.9009C40.2143 38.6584 38.6603 40.2101 36.9009 41.5035L38.2373 43.3173C40.1752 41.8907 41.8897 40.1831 43.3241 38.251L41.5103 36.9009ZM36.9009 6.48968C38.6604 7.78558 40.2144 9.33954 41.5103 11.0991L43.3241 9.749C41.8947 7.81511 40.1849 6.10526 38.251 4.67592L36.9009 6.48968ZM6.48966 11.0991C7.78555 9.33954 9.33951 7.78558 11.0991 6.48968L9.74897 4.67592C7.81508 6.10526 6.10523 7.81511 4.67589 9.749L6.48966 11.0991ZM44.5514 11.59L42.6217 12.7492C43.7524 14.6189 44.5938 16.6488 45.1174 18.7701L47.2993 18.2314C46.725 15.8912 45.7984 13.6519 44.5514 11.59ZM20.7407 2.49395C22.9012 2.16661 25.0987 2.16661 27.2593 2.49395L27.5934 0.271067C25.2114 -0.0903556 22.7885 -0.0903556 20.4065 0.271067L20.7407 2.49395ZM7.64201 43.9173L2.9985 44.9947L4.08267 40.3511L1.89388 39.8397L0.809712 44.4833C0.741877 44.7711 0.731467 45.0696 0.779077 45.3615C0.826687 45.6534 0.931383 45.9331 1.08718 46.1845C1.24297 46.4359 1.4468 46.6542 1.68701 46.8268C1.92723 46.9993 2.19911 47.1229 2.4871 47.1903C2.82391 47.2653 3.17309 47.2653 3.5099 47.1903L8.15341 46.1197L7.64201 43.9173ZM2.35755 37.8351L4.55316 38.3396L5.30321 35.1212C4.20788 33.2839 3.39207 31.2938 2.88258 29.2163L0.700614 29.755C1.19141 31.7435 1.93381 33.6614 2.90986 35.4622L2.35755 37.8351ZM12.8583 42.7036L9.63988 43.4536L10.1513 45.6492L12.5174 45.0969C14.3167 46.0759 16.235 46.8185 18.2246 47.3062L18.7632 45.1242C16.6922 44.6081 14.7092 43.7877 12.8787 42.6899L12.8583 42.7036ZM24 4.49864C13.2265 4.50545 4.50543 13.2402 4.50543 24.0068C4.51136 27.674 5.54866 31.2655 7.49882 34.3712L5.62369 42.3763L13.622 40.5012C22.7385 46.2356 34.7803 43.5014 40.5148 34.3916C46.2493 25.2819 43.5218 13.2402 34.4121 7.49885C31.2934 5.53766 27.684 4.49764 24 4.49864Z" fill="#3A76F0"/>
</svg>
